<mxfile host="Electron" agent="Mozilla/5.0 (Windows NT 10.0; Win64; x64) AppleWebKit/537.36 (KHTML, like Gecko) draw.io/28.1.2 Chrome/138.0.7204.243 Electron/37.4.0 Safari/537.36" version="28.1.2">
  <diagram name="Page-1" id="DeKgmygFhyHGC1hF9SQ4">
    <mxGraphModel dx="2119" dy="709" grid="1" gridSize="10" guides="1" tooltips="1" connect="1" arrows="1" fold="1" page="1" pageScale="1" pageWidth="850" pageHeight="1100" math="0" shadow="0">
      <root>
        <mxCell id="0" />
        <mxCell id="1" parent="0" />
        <mxCell id="3s-mhWSr0CREk9CioD-d-1" value="" style="rounded=0;whiteSpace=wrap;html=1;" parent="1" vertex="1">
          <mxGeometry x="-540" y="130" width="280" height="480" as="geometry" />
        </mxCell>
        <mxCell id="3s-mhWSr0CREk9CioD-d-2" value="Content Creator" style="shape=umlActor;verticalLabelPosition=bottom;verticalAlign=top;html=1;outlineConnect=0;" parent="1" vertex="1">
          <mxGeometry x="-710" y="290" width="110" height="170" as="geometry" />
        </mxCell>
        <mxCell id="3s-mhWSr0CREk9CioD-d-6" value="Youtube System" style="shape=umlActor;verticalLabelPosition=bottom;verticalAlign=top;html=1;outlineConnect=0;" parent="1" vertex="1">
          <mxGeometry x="-190" y="270" width="110" height="170" as="geometry" />
        </mxCell>
        <mxCell id="3s-mhWSr0CREk9CioD-d-7" value="Manage Video Upload" style="ellipse;whiteSpace=wrap;html=1;" parent="1" vertex="1">
          <mxGeometry x="-485" y="200" width="170" height="80" as="geometry" />
        </mxCell>
        <mxCell id="3s-mhWSr0CREk9CioD-d-8" value="Configure Video Settings" style="ellipse;whiteSpace=wrap;html=1;" parent="1" vertex="1">
          <mxGeometry x="-485" y="310" width="170" height="80" as="geometry" />
        </mxCell>
        <mxCell id="3s-mhWSr0CREk9CioD-d-9" value="Edit/Delete Video" style="ellipse;whiteSpace=wrap;html=1;" parent="1" vertex="1">
          <mxGeometry x="-485" y="410" width="170" height="80" as="geometry" />
        </mxCell>
        <mxCell id="3s-mhWSr0CREk9CioD-d-12" value="" style="endArrow=none;html=1;rounded=0;exitX=1;exitY=0.3333333333333333;exitDx=0;exitDy=0;exitPerimeter=0;entryX=0;entryY=0.5;entryDx=0;entryDy=0;" parent="1" source="3s-mhWSr0CREk9CioD-d-2" target="3s-mhWSr0CREk9CioD-d-7" edge="1">
          <mxGeometry width="50" height="50" relative="1" as="geometry">
            <mxPoint x="-600" y="320" as="sourcePoint" />
            <mxPoint x="-550" y="270" as="targetPoint" />
          </mxGeometry>
        </mxCell>
        <mxCell id="3s-mhWSr0CREk9CioD-d-13" value="" style="endArrow=none;html=1;rounded=0;entryX=0;entryY=0.5;entryDx=0;entryDy=0;" parent="1" target="3s-mhWSr0CREk9CioD-d-8" edge="1">
          <mxGeometry width="50" height="50" relative="1" as="geometry">
            <mxPoint x="-590" y="400" as="sourcePoint" />
            <mxPoint x="-475" y="270" as="targetPoint" />
          </mxGeometry>
        </mxCell>
        <mxCell id="3s-mhWSr0CREk9CioD-d-14" value="" style="endArrow=none;html=1;rounded=0;entryX=0;entryY=0.5;entryDx=0;entryDy=0;exitX=1;exitY=1;exitDx=0;exitDy=0;exitPerimeter=0;" parent="1" source="3s-mhWSr0CREk9CioD-d-2" target="3s-mhWSr0CREk9CioD-d-9" edge="1">
          <mxGeometry width="50" height="50" relative="1" as="geometry">
            <mxPoint x="-580" y="410" as="sourcePoint" />
            <mxPoint x="-475" y="400" as="targetPoint" />
          </mxGeometry>
        </mxCell>
        <mxCell id="3s-mhWSr0CREk9CioD-d-15" value="Automated Validation and scanning" style="ellipse;whiteSpace=wrap;html=1;" parent="1" vertex="1">
          <mxGeometry x="-485" y="510" width="170" height="80" as="geometry" />
        </mxCell>
        <mxCell id="3s-mhWSr0CREk9CioD-d-16" value="" style="endArrow=none;html=1;rounded=0;entryX=0;entryY=0.3333333333333333;entryDx=0;entryDy=0;entryPerimeter=0;exitX=1;exitY=0.5;exitDx=0;exitDy=0;" parent="1" source="3s-mhWSr0CREk9CioD-d-15" target="3s-mhWSr0CREk9CioD-d-6" edge="1">
          <mxGeometry width="50" height="50" relative="1" as="geometry">
            <mxPoint x="-390" y="490" as="sourcePoint" />
            <mxPoint x="-340" y="440" as="targetPoint" />
          </mxGeometry>
        </mxCell>
        <mxCell id="3s-mhWSr0CREk9CioD-d-17" value="" style="rounded=0;whiteSpace=wrap;html=1;" parent="1" vertex="1">
          <mxGeometry x="310" y="130" width="300" height="590" as="geometry" />
        </mxCell>
        <mxCell id="3s-mhWSr0CREk9CioD-d-18" value="Sys moderator" style="shape=umlActor;verticalLabelPosition=bottom;verticalAlign=top;html=1;outlineConnect=0;" parent="1" vertex="1">
          <mxGeometry x="700" y="270" width="110" height="170" as="geometry" />
        </mxCell>
        <mxCell id="3s-mhWSr0CREk9CioD-d-19" value="Channel&amp;nbsp; Owner" style="shape=umlActor;verticalLabelPosition=bottom;verticalAlign=top;html=1;outlineConnect=0;" parent="1" vertex="1">
          <mxGeometry x="90" y="470" width="110" height="170" as="geometry" />
        </mxCell>
        <mxCell id="3s-mhWSr0CREk9CioD-d-20" value="Manage Comments" style="ellipse;whiteSpace=wrap;html=1;" parent="1" vertex="1">
          <mxGeometry x="375" y="210" width="170" height="80" as="geometry" />
        </mxCell>
        <mxCell id="3s-mhWSr0CREk9CioD-d-21" value="&lt;i&gt;Interact with Video&lt;/i&gt;" style="ellipse;whiteSpace=wrap;html=1;" parent="1" vertex="1">
          <mxGeometry x="375" y="320" width="170" height="80" as="geometry" />
        </mxCell>
        <mxCell id="3s-mhWSr0CREk9CioD-d-22" value="Manage Subscribtions" style="ellipse;whiteSpace=wrap;html=1;" parent="1" vertex="1">
          <mxGeometry x="375" y="420" width="170" height="80" as="geometry" />
        </mxCell>
        <mxCell id="3s-mhWSr0CREk9CioD-d-26" value="Post Community Content" style="ellipse;whiteSpace=wrap;html=1;" parent="1" vertex="1">
          <mxGeometry x="375" y="520" width="170" height="80" as="geometry" />
        </mxCell>
        <mxCell id="3s-mhWSr0CREk9CioD-d-33" value="" style="endArrow=none;dashed=1;html=1;rounded=0;" parent="1" edge="1">
          <mxGeometry width="50" height="50" relative="1" as="geometry">
            <mxPoint x="880" y="560" as="sourcePoint" />
            <mxPoint x="880" y="10" as="targetPoint" />
          </mxGeometry>
        </mxCell>
        <mxCell id="3s-mhWSr0CREk9CioD-d-34" value="" style="endArrow=none;html=1;rounded=0;entryX=0;entryY=0.5;entryDx=0;entryDy=0;" parent="1" target="3s-mhWSr0CREk9CioD-d-20" edge="1">
          <mxGeometry width="50" height="50" relative="1" as="geometry">
            <mxPoint x="240" y="220" as="sourcePoint" />
            <mxPoint x="430" y="380" as="targetPoint" />
          </mxGeometry>
        </mxCell>
        <mxCell id="3s-mhWSr0CREk9CioD-d-35" value="" style="endArrow=none;html=1;rounded=0;entryX=0;entryY=0.5;entryDx=0;entryDy=0;" parent="1" target="3s-mhWSr0CREk9CioD-d-21" edge="1">
          <mxGeometry width="50" height="50" relative="1" as="geometry">
            <mxPoint x="240" y="350" as="sourcePoint" />
            <mxPoint x="385" y="260" as="targetPoint" />
          </mxGeometry>
        </mxCell>
        <mxCell id="3s-mhWSr0CREk9CioD-d-36" value="" style="endArrow=none;html=1;rounded=0;entryX=0;entryY=0.5;entryDx=0;entryDy=0;" parent="1" target="3s-mhWSr0CREk9CioD-d-22" edge="1">
          <mxGeometry width="50" height="50" relative="1" as="geometry">
            <mxPoint x="240" y="490" as="sourcePoint" />
            <mxPoint x="385" y="370" as="targetPoint" />
          </mxGeometry>
        </mxCell>
        <mxCell id="3s-mhWSr0CREk9CioD-d-37" value="" style="endArrow=none;html=1;rounded=0;entryX=0;entryY=0.5;entryDx=0;entryDy=0;" parent="1" target="3s-mhWSr0CREk9CioD-d-26" edge="1">
          <mxGeometry width="50" height="50" relative="1" as="geometry">
            <mxPoint x="240" y="610" as="sourcePoint" />
            <mxPoint x="385" y="470" as="targetPoint" />
          </mxGeometry>
        </mxCell>
        <mxCell id="3s-mhWSr0CREk9CioD-d-38" value="User/Viewer" style="shape=umlActor;verticalLabelPosition=bottom;verticalAlign=top;html=1;outlineConnect=0;" parent="1" vertex="1">
          <mxGeometry x="100" y="140" width="110" height="170" as="geometry" />
        </mxCell>
        <mxCell id="3s-mhWSr0CREk9CioD-d-39" value="Moderation" style="ellipse;whiteSpace=wrap;html=1;" parent="1" vertex="1">
          <mxGeometry x="375" y="620" width="170" height="80" as="geometry" />
        </mxCell>
        <mxCell id="3s-mhWSr0CREk9CioD-d-40" value="" style="endArrow=none;html=1;rounded=0;exitX=1;exitY=0.5;exitDx=0;exitDy=0;" parent="1" source="3s-mhWSr0CREk9CioD-d-39" target="3s-mhWSr0CREk9CioD-d-18" edge="1">
          <mxGeometry width="50" height="50" relative="1" as="geometry">
            <mxPoint x="450" y="430" as="sourcePoint" />
            <mxPoint x="500" y="380" as="targetPoint" />
          </mxGeometry>
        </mxCell>
        <mxCell id="3s-mhWSr0CREk9CioD-d-41" value="" style="rounded=0;whiteSpace=wrap;html=1;" parent="1" vertex="1">
          <mxGeometry x="1150" y="150" width="280" height="500" as="geometry" />
        </mxCell>
        <mxCell id="3s-mhWSr0CREk9CioD-d-42" value="Registred User" style="shape=umlActor;verticalLabelPosition=bottom;verticalAlign=top;html=1;outlineConnect=0;" parent="1" vertex="1">
          <mxGeometry x="980" y="330" width="110" height="170" as="geometry" />
        </mxCell>
        <mxCell id="3s-mhWSr0CREk9CioD-d-43" value="Youtube System" style="shape=umlActor;verticalLabelPosition=bottom;verticalAlign=top;html=1;outlineConnect=0;" parent="1" vertex="1">
          <mxGeometry x="1500" y="310" width="110" height="170" as="geometry" />
        </mxCell>
        <mxCell id="3s-mhWSr0CREk9CioD-d-44" value="Manage Playlists" style="ellipse;whiteSpace=wrap;html=1;" parent="1" vertex="1">
          <mxGeometry x="1205" y="240" width="170" height="80" as="geometry" />
        </mxCell>
        <mxCell id="3s-mhWSr0CREk9CioD-d-45" value="Organize Videos" style="ellipse;whiteSpace=wrap;html=1;" parent="1" vertex="1">
          <mxGeometry x="1205" y="350" width="170" height="80" as="geometry" />
        </mxCell>
        <mxCell id="3s-mhWSr0CREk9CioD-d-46" value="Access to history and Library" style="ellipse;whiteSpace=wrap;html=1;" parent="1" vertex="1">
          <mxGeometry x="1205" y="450" width="170" height="80" as="geometry" />
        </mxCell>
        <mxCell id="3s-mhWSr0CREk9CioD-d-47" value="" style="endArrow=none;html=1;rounded=0;exitX=1;exitY=0.3333333333333333;exitDx=0;exitDy=0;exitPerimeter=0;entryX=0;entryY=0.5;entryDx=0;entryDy=0;" parent="1" source="3s-mhWSr0CREk9CioD-d-42" target="3s-mhWSr0CREk9CioD-d-44" edge="1">
          <mxGeometry width="50" height="50" relative="1" as="geometry">
            <mxPoint x="1090" y="360" as="sourcePoint" />
            <mxPoint x="1140" y="310" as="targetPoint" />
          </mxGeometry>
        </mxCell>
        <mxCell id="3s-mhWSr0CREk9CioD-d-48" value="" style="endArrow=none;html=1;rounded=0;entryX=0;entryY=0.5;entryDx=0;entryDy=0;" parent="1" target="3s-mhWSr0CREk9CioD-d-45" edge="1">
          <mxGeometry width="50" height="50" relative="1" as="geometry">
            <mxPoint x="1100" y="440" as="sourcePoint" />
            <mxPoint x="1215" y="310" as="targetPoint" />
          </mxGeometry>
        </mxCell>
        <mxCell id="3s-mhWSr0CREk9CioD-d-49" value="" style="endArrow=none;html=1;rounded=0;entryX=0;entryY=0.5;entryDx=0;entryDy=0;exitX=1;exitY=1;exitDx=0;exitDy=0;exitPerimeter=0;" parent="1" source="3s-mhWSr0CREk9CioD-d-42" target="3s-mhWSr0CREk9CioD-d-46" edge="1">
          <mxGeometry width="50" height="50" relative="1" as="geometry">
            <mxPoint x="1110" y="450" as="sourcePoint" />
            <mxPoint x="1215" y="440" as="targetPoint" />
          </mxGeometry>
        </mxCell>
        <mxCell id="3s-mhWSr0CREk9CioD-d-50" value="Manage playlists&amp;nbsp;&lt;div&gt;(Watch Later, Liked Videos, Watch History)&lt;/div&gt;" style="ellipse;whiteSpace=wrap;html=1;" parent="1" vertex="1">
          <mxGeometry x="1205" y="550" width="170" height="80" as="geometry" />
        </mxCell>
        <mxCell id="3s-mhWSr0CREk9CioD-d-51" value="" style="endArrow=none;html=1;rounded=0;entryX=0;entryY=0.3333333333333333;entryDx=0;entryDy=0;entryPerimeter=0;exitX=1;exitY=0.5;exitDx=0;exitDy=0;" parent="1" source="3s-mhWSr0CREk9CioD-d-50" target="3s-mhWSr0CREk9CioD-d-43" edge="1">
          <mxGeometry width="50" height="50" relative="1" as="geometry">
            <mxPoint x="1300" y="530" as="sourcePoint" />
            <mxPoint x="1350" y="480" as="targetPoint" />
          </mxGeometry>
        </mxCell>
        <mxCell id="3s-mhWSr0CREk9CioD-d-52" value="" style="rounded=0;whiteSpace=wrap;html=1;" parent="1" vertex="1">
          <mxGeometry x="2020" y="140" width="280" height="570" as="geometry" />
        </mxCell>
        <mxCell id="3s-mhWSr0CREk9CioD-d-53" value="&amp;nbsp;User" style="shape=umlActor;verticalLabelPosition=bottom;verticalAlign=top;html=1;outlineConnect=0;" parent="1" vertex="1">
          <mxGeometry x="1850" y="300" width="110" height="170" as="geometry" />
        </mxCell>
        <mxCell id="3s-mhWSr0CREk9CioD-d-54" value="Sys Admlin" style="shape=umlActor;verticalLabelPosition=bottom;verticalAlign=top;html=1;outlineConnect=0;" parent="1" vertex="1">
          <mxGeometry x="2370" y="280" width="110" height="170" as="geometry" />
        </mxCell>
        <mxCell id="3s-mhWSr0CREk9CioD-d-55" value="Access the system" style="ellipse;whiteSpace=wrap;html=1;" parent="1" vertex="1">
          <mxGeometry x="2075" y="210" width="170" height="80" as="geometry" />
        </mxCell>
        <mxCell id="3s-mhWSr0CREk9CioD-d-56" value="Manage Accessibility settings" style="ellipse;whiteSpace=wrap;html=1;" parent="1" vertex="1">
          <mxGeometry x="2075" y="320" width="170" height="80" as="geometry" />
        </mxCell>
        <mxCell id="3s-mhWSr0CREk9CioD-d-57" value="Configure privacy" style="ellipse;whiteSpace=wrap;html=1;" parent="1" vertex="1">
          <mxGeometry x="2075" y="420" width="170" height="80" as="geometry" />
        </mxCell>
        <mxCell id="3s-mhWSr0CREk9CioD-d-58" value="" style="endArrow=none;html=1;rounded=0;exitX=1;exitY=0.3333333333333333;exitDx=0;exitDy=0;exitPerimeter=0;entryX=0;entryY=0.5;entryDx=0;entryDy=0;" parent="1" source="3s-mhWSr0CREk9CioD-d-53" target="3s-mhWSr0CREk9CioD-d-55" edge="1">
          <mxGeometry width="50" height="50" relative="1" as="geometry">
            <mxPoint x="1960" y="330" as="sourcePoint" />
            <mxPoint x="2010" y="280" as="targetPoint" />
          </mxGeometry>
        </mxCell>
        <mxCell id="3s-mhWSr0CREk9CioD-d-59" value="" style="endArrow=none;html=1;rounded=0;entryX=0;entryY=0.5;entryDx=0;entryDy=0;" parent="1" target="3s-mhWSr0CREk9CioD-d-56" edge="1">
          <mxGeometry width="50" height="50" relative="1" as="geometry">
            <mxPoint x="1970" y="410" as="sourcePoint" />
            <mxPoint x="2085" y="280" as="targetPoint" />
          </mxGeometry>
        </mxCell>
        <mxCell id="3s-mhWSr0CREk9CioD-d-60" value="" style="endArrow=none;html=1;rounded=0;entryX=0;entryY=0.5;entryDx=0;entryDy=0;exitX=1;exitY=1;exitDx=0;exitDy=0;exitPerimeter=0;" parent="1" source="3s-mhWSr0CREk9CioD-d-53" target="3s-mhWSr0CREk9CioD-d-57" edge="1">
          <mxGeometry width="50" height="50" relative="1" as="geometry">
            <mxPoint x="1980" y="420" as="sourcePoint" />
            <mxPoint x="2085" y="410" as="targetPoint" />
          </mxGeometry>
        </mxCell>
        <mxCell id="3s-mhWSr0CREk9CioD-d-63" value="Security Policy enforcement" style="ellipse;whiteSpace=wrap;html=1;" parent="1" vertex="1">
          <mxGeometry x="2070" y="560" width="170" height="80" as="geometry" />
        </mxCell>
        <mxCell id="3s-mhWSr0CREk9CioD-d-64" value="" style="endArrow=none;html=1;rounded=0;exitX=1;exitY=0.5;exitDx=0;exitDy=0;entryX=0;entryY=0.3333333333333333;entryDx=0;entryDy=0;entryPerimeter=0;" parent="1" source="3s-mhWSr0CREk9CioD-d-63" target="3s-mhWSr0CREk9CioD-d-54" edge="1">
          <mxGeometry width="50" height="50" relative="1" as="geometry">
            <mxPoint x="2240" y="380" as="sourcePoint" />
            <mxPoint x="2290" y="330" as="targetPoint" />
          </mxGeometry>
        </mxCell>
        <mxCell id="3s-mhWSr0CREk9CioD-d-65" value=" System Quality &amp;amp; Security" style="text;html=1;align=center;verticalAlign=middle;whiteSpace=wrap;rounded=0;" parent="1" vertex="1">
          <mxGeometry x="2065" y="160" width="190" height="30" as="geometry" />
        </mxCell>
        <mxCell id="3s-mhWSr0CREk9CioD-d-66" value="Social Interactions System" style="text;html=1;align=center;verticalAlign=middle;whiteSpace=wrap;rounded=0;" parent="1" vertex="1">
          <mxGeometry x="395" y="150" width="150" height="30" as="geometry" />
        </mxCell>
        <mxCell id="3s-mhWSr0CREk9CioD-d-68" value="Playlist &amp;amp; Library Management System" style="text;html=1;align=center;verticalAlign=middle;whiteSpace=wrap;rounded=0;" parent="1" vertex="1">
          <mxGeometry x="1190" y="170" width="200" height="30" as="geometry" />
        </mxCell>
        <mxCell id="3s-mhWSr0CREk9CioD-d-69" value="Video Upload &amp;amp; Management System" style="text;html=1;align=center;verticalAlign=middle;whiteSpace=wrap;rounded=0;" parent="1" vertex="1">
          <mxGeometry x="-510" y="150" width="230" height="30" as="geometry" />
        </mxCell>
      </root>
    </mxGraphModel>
  </diagram>
</mxfile>
